# xmcd
#
# Track frame offsets: 
#        150
#        15130
#        26900
#        38275
#        54010
#        67680
#        79629
#        93654
#        106352
#        124322
#
# Disc length: 1879 seconds
#
# Revision: 3
# Processed by: cddbd v1.5.2PL0 Copyright (c) Steve Scherf et al.
# Submitted via: ExactAudioCopy v0.99pb5
#
DISCID=6707550a
DTITLE=Perfect Stranger - You Have The Right To Remain Silent
DYEAR=1995
DGENRE=Country
TTITLE0=Remember The Ride
TTITLE1=It's Up to You
TTITLE2=One More Reposession
TTITLE3=You Have The Right To Remain Silent
TTITLE4=Ridin' The Rodeo
TTITLE5=I Ain't Never
TTITLE6=Who Are You
TTITLE7=Cut Me Off
TTITLE8=I Am A Stranger Here Myself
TTITLE9=Even The Jukebox Can't Forget
EXTD=YEAR: 1995 ID3G: 2
EXTT0=
EXTT1=
EXTT2=
EXTT3=
EXTT4=
EXTT5=
EXTT6=
EXTT7=
EXTT8=
EXTT9=
PLAYORDER=
